<svg xmlns="http://www.w3.org/2000/svg" xmlns:xlink="http://www.w3.org/1999/xlink" width="500" zoomAndPan="magnify" viewBox="0 0 375 374.999991" height="500" preserveAspectRatio="xMidYMid meet" version="1.0"><defs><filter x="0%" y="0%" width="100%" height="100%" id="55fc1ed58e"><feColorMatrix values="0 0 0 0 1 0 0 0 0 1 0 0 0 0 1 0 0 0 1 0" color-interpolation-filters="sRGB"/></filter><g/><mask id="ed786a04d6"><g filter="url(#55fc1ed58e)"><rect x="-37.5" width="450" fill="#000000" y="-37.499999" height="449.999989" fill-opacity="0.97"/></g></mask><clipPath id="ed83bc4712"><path d="M 0 0.199219 L 58 0.199219 L 58 117.824219 L 0 117.824219 Z M 0 0.199219 " clip-rule="nonzero"/></clipPath><clipPath id="5b7f019134"><path d="M 109 0.199219 L 167.25 0.199219 L 167.25 117.824219 L 109 117.824219 Z M 109 0.199219 " clip-rule="nonzero"/></clipPath><clipPath id="36bb4a8503"><rect x="0" width="168" y="0" height="119"/></clipPath><clipPath id="8d0704d083"><path d="M 37.226562 103.113281 L 130.226562 103.113281 L 130.226562 208.863281 L 37.226562 208.863281 Z M 37.226562 103.113281 " clip-rule="nonzero"/></clipPath></defs><g mask="url(#ed786a04d6)"><g transform="matrix(1, 0, 0, 1, 0, 97)"><g clip-path="url(#36bb4a8503)"><g clip-path="url(#ed83bc4712)"><path fill="#000000" d="M 56.878906 117.332031 C 54.042969 116.628906 51.339844 115.664062 48.769531 114.496094 C 48.738281 114.429688 48.703125 114.363281 48.636719 114.296875 L 48.605469 114.261719 C 48.472656 109.65625 44.898438 104.851562 41.664062 101.847656 C 41.230469 101.449219 40.296875 101.683594 40.363281 102.382812 C 40.828125 106.121094 42.332031 109.757812 44.867188 112.527344 C 40.527344 110.089844 36.625 107.019531 33.054688 103.449219 C 33.121094 103.351562 33.15625 103.214844 33.15625 103.082031 C 33.1875 99.980469 32.753906 96.976562 31.6875 94.039062 C 30.917969 91.9375 29.917969 89.167969 27.847656 88.066406 C 27.382812 87.835938 26.816406 88.132812 26.816406 88.667969 C 26.75 92.304688 27.515625 95.941406 29.183594 99.144531 C 28.582031 98.445312 28.015625 97.710938 27.449219 96.976562 C 23.84375 92.238281 20.609375 87.066406 17.972656 81.660156 C 18.003906 81.59375 18.039062 81.492188 18.003906 81.394531 C 17.972656 81.292969 17.972656 81.195312 17.9375 81.09375 C 18.039062 81.058594 18.171875 80.992188 18.238281 80.859375 C 21.574219 75.921875 21.042969 68.582031 19.539062 63.109375 C 19.375 62.472656 18.539062 62.441406 18.207031 62.941406 C 15.136719 67.414062 15.101562 72.550781 16.105469 77.554688 C 14.335938 73.386719 12.96875 69.046875 12.097656 64.609375 C 11.734375 62.742188 11.464844 60.871094 11.332031 59.039062 C 11.433594 59.039062 11.566406 59.003906 11.664062 58.9375 C 16.570312 55.96875 19.308594 49.359375 20.074219 43.921875 C 20.175781 43.222656 19.40625 42.621094 18.804688 43.1875 C 15.402344 46.457031 12.734375 50.363281 11.164062 54.765625 C 11.265625 47.792969 12.898438 41.085938 15.636719 34.710938 C 15.738281 34.8125 15.902344 34.878906 16.070312 34.878906 C 21.808594 34.613281 27.25 29.574219 30.152344 24.96875 C 30.484375 24.433594 29.917969 23.667969 29.316406 23.867188 C 25.144531 25.269531 21.308594 27.269531 17.90625 30.007812 C 21.042969 24 25.046875 18.363281 29.519531 13.191406 L 29.550781 13.191406 C 32.386719 11.789062 35.691406 10.621094 37.992188 8.382812 C 39.960938 6.449219 41.03125 3.8125 42.0625 1.308594 C 42.398438 0.507812 41.398438 0.0742188 40.796875 0.441406 C 40.730469 0.410156 40.695312 0.410156 40.597656 0.410156 C 38.027344 0.710938 35.757812 1.710938 33.890625 3.511719 C 31.851562 5.515625 30.886719 8.21875 29.382812 10.585938 C 25.949219 14.289062 22.8125 18.394531 20.074219 22.765625 C 20.875 16.59375 21.910156 9.984375 20.308594 3.914062 C 20.109375 3.179688 19.207031 3.179688 18.839844 3.714844 C 14.367188 9.984375 13.867188 18.929688 18.574219 25.234375 C 15.601562 30.375 13.265625 35.878906 11.765625 41.484375 C 11.632812 39.082031 11.433594 36.714844 11.164062 34.34375 C 11 32.777344 11.332031 29.640625 9.964844 28.539062 C 9.695312 28.304688 9.328125 28.238281 9.03125 28.40625 C 3.859375 31.542969 6.09375 43.488281 10.566406 46.289062 C 10.597656 46.324219 10.632812 46.324219 10.699219 46.324219 C 9.929688 50.660156 9.664062 55.03125 10.03125 59.4375 L 10.03125 59.472656 C 10.03125 59.539062 10.03125 59.605469 10.0625 59.671875 C 10.199219 61.238281 10.398438 62.773438 10.699219 64.34375 C 10.898438 65.445312 11.164062 66.511719 11.433594 67.578125 C 10.230469 65.542969 8.730469 63.507812 7.328125 61.738281 C 5.691406 59.671875 3.757812 58.035156 1.15625 57.335938 C 0.554688 57.167969 0.0859375 57.703125 0.1875 58.304688 C 1.453125 64.308594 5.992188 69.546875 12 71.183594 C 12.167969 71.214844 12.300781 71.183594 12.398438 71.117188 C 14.234375 77.089844 16.90625 82.894531 20.109375 88.300781 C 18.804688 87.234375 17.4375 86.265625 15.96875 85.464844 C 14 84.363281 11.230469 82.660156 8.929688 83.394531 C 8.527344 83.53125 8.230469 83.964844 8.363281 84.363281 C 10.332031 90.4375 16.539062 94.339844 22.8125 92.640625 L 22.84375 92.640625 C 24.210938 94.707031 25.679688 96.710938 27.183594 98.613281 C 29.550781 101.648438 32.21875 104.585938 35.15625 107.222656 C 31.488281 105.351562 26.882812 104.917969 23.042969 105.320312 C 22.410156 105.386719 22.011719 106.121094 22.511719 106.621094 C 26.679688 110.757812 33.019531 112.425781 38.59375 110.257812 C 38.660156 110.222656 38.695312 110.191406 38.726562 110.15625 C 44.03125 114.160156 50.074219 117.097656 56.746094 118.03125 C 57.144531 118.164062 57.378906 117.464844 56.878906 117.332031 Z M 34.722656 4.980469 C 34.621094 5.179688 34.554688 5.347656 34.457031 5.546875 C 34.222656 5.75 33.988281 5.949219 33.753906 6.183594 C 34.054688 5.75 34.390625 5.347656 34.722656 4.980469 Z M 34.722656 4.980469 " fill-opacity="1" fill-rule="nonzero"/></g><g clip-path="url(#5b7f019134)"><path fill="#000000" d="M 110.433594 118.097656 C 117.109375 117.164062 123.148438 114.226562 128.453125 110.222656 C 128.488281 110.257812 128.554688 110.289062 128.585938 110.324219 C 134.160156 112.492188 140.5 110.824219 144.671875 106.6875 C 145.171875 106.1875 144.769531 105.453125 144.136719 105.386719 C 140.332031 105.019531 135.695312 105.453125 132.023438 107.289062 C 134.960938 104.652344 137.628906 101.75 140 98.679688 C 141.5 96.742188 142.9375 94.742188 144.335938 92.707031 L 144.371094 92.707031 C 150.644531 94.375 156.851562 90.503906 158.820312 84.429688 C 158.953125 83.996094 158.652344 83.597656 158.25 83.460938 C 155.949219 82.695312 153.179688 84.398438 151.210938 85.53125 C 149.742188 86.367188 148.375 87.300781 147.074219 88.367188 C 150.277344 82.929688 152.945312 77.15625 154.78125 71.183594 C 154.882812 71.25 155.015625 71.285156 155.183594 71.25 C 161.1875 69.613281 165.726562 64.375 166.996094 58.371094 C 167.128906 57.800781 166.628906 57.269531 166.027344 57.402344 C 163.425781 58.070312 161.523438 59.703125 159.855469 61.808594 C 158.453125 63.574219 156.949219 65.609375 155.75 67.644531 C 156.015625 66.578125 156.25 65.476562 156.484375 64.410156 C 156.785156 62.839844 156.984375 61.304688 157.117188 59.738281 C 157.152344 59.671875 157.152344 59.605469 157.152344 59.539062 L 157.152344 59.503906 C 157.519531 55.132812 157.25 50.730469 156.484375 46.390625 C 156.515625 46.390625 156.550781 46.359375 156.617188 46.359375 C 161.089844 43.554688 163.324219 31.609375 158.152344 28.472656 C 157.851562 28.273438 157.484375 28.371094 157.21875 28.605469 C 155.847656 29.738281 156.183594 32.84375 156.015625 34.410156 C 155.75 36.78125 155.550781 39.183594 155.414062 41.550781 C 153.914062 35.914062 151.546875 30.441406 148.609375 25.300781 C 153.3125 18.996094 152.8125 10.054688 148.339844 3.746094 C 147.972656 3.210938 147.039062 3.210938 146.875 3.945312 C 145.273438 10.019531 146.304688 16.625 147.105469 22.800781 C 144.371094 18.429688 141.234375 14.324219 137.765625 10.585938 C 136.296875 8.21875 135.328125 5.515625 133.257812 3.511719 C 131.390625 1.710938 129.121094 0.710938 126.550781 0.410156 C 126.484375 0.410156 126.417969 0.410156 126.351562 0.441406 C 125.75 0.0742188 124.785156 0.507812 125.085938 1.308594 C 126.117188 3.8125 127.1875 6.449219 129.15625 8.382812 C 131.457031 10.621094 134.761719 11.789062 137.597656 13.191406 L 137.628906 13.191406 C 142.101562 18.363281 146.105469 24 149.242188 30.007812 C 145.839844 27.269531 142 25.269531 137.832031 23.867188 C 137.195312 23.667969 136.664062 24.433594 136.996094 24.96875 C 139.867188 29.539062 145.339844 34.613281 151.078125 34.878906 C 151.246094 34.878906 151.378906 34.8125 151.511719 34.710938 C 154.214844 41.085938 155.882812 47.792969 155.984375 54.765625 C 154.414062 50.363281 151.746094 46.457031 148.339844 43.1875 C 147.742188 42.621094 146.972656 43.222656 147.074219 43.921875 C 147.839844 49.359375 150.578125 55.96875 155.480469 58.9375 C 155.617188 59.003906 155.714844 59.039062 155.816406 59.039062 C 155.683594 60.871094 155.414062 62.742188 155.046875 64.609375 C 154.148438 69.015625 152.78125 73.351562 151.042969 77.558594 C 152.046875 72.519531 152.011719 67.414062 148.941406 62.941406 C 148.609375 62.441406 147.773438 62.472656 147.609375 63.109375 C 146.105469 68.582031 145.570312 75.953125 148.910156 80.859375 C 149.007812 80.992188 149.109375 81.058594 149.210938 81.09375 C 149.175781 81.195312 149.175781 81.292969 149.140625 81.394531 C 149.109375 81.492188 149.140625 81.59375 149.175781 81.660156 C 146.539062 87.101562 143.269531 92.238281 139.699219 96.976562 C 139.132812 97.710938 138.566406 98.445312 137.964844 99.144531 C 139.597656 95.941406 140.367188 92.304688 140.332031 88.667969 C 140.332031 88.132812 139.765625 87.835938 139.300781 88.066406 C 137.261719 89.167969 136.261719 91.9375 135.460938 94.039062 C 134.394531 96.945312 133.960938 99.980469 133.992188 103.082031 C 133.992188 103.214844 134.027344 103.351562 134.09375 103.449219 C 130.554688 107.019531 126.617188 110.089844 122.28125 112.527344 C 124.816406 109.757812 126.351562 106.121094 126.785156 102.382812 C 126.886719 101.683594 125.917969 101.449219 125.484375 101.847656 C 122.246094 104.851562 118.675781 109.65625 118.542969 114.261719 L 118.511719 114.296875 C 118.445312 114.363281 118.410156 114.429688 118.378906 114.496094 C 115.808594 115.664062 113.105469 116.597656 110.269531 117.332031 C 109.703125 117.464844 109.933594 118.164062 110.433594 118.097656 Z M 133.324219 6.148438 C 133.09375 5.949219 132.859375 5.75 132.625 5.515625 C 132.523438 5.316406 132.457031 5.148438 132.359375 4.980469 C 132.691406 5.347656 133.027344 5.75 133.324219 6.148438 Z M 133.324219 6.148438 " fill-opacity="1" fill-rule="nonzero"/></g></g></g></g><g clip-path="url(#8d0704d083)"><path fill="#000000" d="M 89.335938 205.464844 C 91.148438 205.539062 87.460938 206.90625 87.835938 205.9375 C 88.363281 205.867188 88.839844 205.625 89.335938 205.464844 Z M 115.566406 173.015625 C 115.921875 173.097656 116.601562 173.398438 116.242188 173.84375 C 115.859375 174.585938 114.863281 173.253906 115.566406 173.015625 Z M 117.242188 172.03125 C 119.628906 172.164062 122.097656 172.265625 124.371094 173.0625 C 124.933594 173.5625 123.667969 173.441406 123.429688 173.304688 C 121.261719 172.585938 118.980469 173.011719 116.765625 172.78125 C 116.511719 172.4375 117.011719 172.203125 117.242188 172.03125 Z M 51.03125 172.03125 C 51.453125 171.980469 51.34375 172.691406 51.804688 172.726562 C 53.898438 172.957031 56.597656 172.363281 58.386719 173.628906 C 56.28125 173.679688 54.167969 173.207031 52.050781 173.199219 C 51.433594 173.015625 51.492188 174.03125 51.132812 174.125 C 50.246094 173.539062 50.558594 172.726562 51.03125 172.03125 Z M 50.863281 170.367188 C 51.53125 170.160156 52.0625 170.984375 51.445312 171.410156 C 50.835938 172.074219 50.144531 170.59375 50.863281 170.367188 Z M 117.105469 169.125 C 120.753906 168.890625 124.4375 169.632812 127.886719 170.773438 C 127.980469 170.355469 128.035156 169.929688 128.105469 169.507812 C 128.617188 169.285156 128.316406 170.363281 128.984375 170.15625 C 129.671875 170.46875 128.601562 171.074219 129.050781 171.5 C 129.160156 172.152344 130.152344 171.789062 130.210938 172.507812 L 130.210938 173.042969 C 129.1875 174.570312 128.402344 176.527344 126.554688 177.222656 C 120.996094 178.84375 115.078125 178.882812 109.363281 178.195312 C 106.957031 177.730469 103.910156 177.296875 103.03125 174.589844 C 102.910156 173.671875 101.414062 173.300781 102.003906 172.269531 C 102.445312 171.796875 103.03125 170.476562 103.84375 171.109375 C 107.335938 169.699219 111.171875 169.003906 114.941406 169.253906 C 115.425781 169.464844 115.816406 169.890625 116.40625 169.605469 C 116.710938 170.195312 115.625 170.3125 116.015625 170.867188 C 116.527344 171.476562 116.195312 172.183594 115.890625 172.800781 C 115.476562 172.863281 115.867188 172.25 115.511719 172.152344 C 114.824219 171.796875 115.539062 171.113281 115.628906 170.625 C 115.371094 169.777344 114.011719 169.894531 113.5 170.015625 C 113.816406 170.566406 113.132812 170.695312 113.320312 170.082031 C 111.019531 169.984375 108.746094 170.414062 106.476562 170.789062 C 107.058594 171.449219 108.363281 170.390625 108.5 171.105469 C 107.667969 171.207031 106.796875 171.148438 106.042969 171.625 C 107.476562 171.886719 108.839844 171.105469 110.28125 171.222656 C 110.433594 171.691406 109.542969 171.539062 109.304688 171.640625 C 108.207031 171.851562 106.75 171.800781 105.976562 172.535156 C 107.238281 172.089844 108.5625 172.171875 109.871094 172.027344 C 109.636719 172.773438 107.996094 172.117188 107.679688 172.847656 C 110.019531 172.667969 112.308594 171.894531 114.671875 172.269531 C 114.976562 172.324219 114.914062 172.882812 114.558594 172.804688 C 111.726562 172.972656 108.808594 172.714844 106.105469 173.753906 C 105.648438 174.023438 105.207031 173.644531 104.832031 173.40625 C 105.183594 172.761719 104.375 172.710938 104.285156 172.09375 C 103.523438 171.839844 103.335938 172.5 103.171875 172.949219 C 103.75 173.667969 104.6875 173.84375 105.535156 174.039062 C 108.570312 175.058594 111.859375 174.996094 115.03125 175.007812 C 115.464844 174.429688 116.089844 174.402344 116.601562 174.910156 C 119.839844 175.03125 123.089844 174.648438 126.246094 173.910156 C 127.089844 173.671875 128.121094 173.71875 128.789062 173.082031 C 128.339844 172.554688 128.277344 171.785156 128.671875 171.195312 C 128.339844 170.6875 128.089844 171.726562 127.664062 171.5625 C 126.78125 171.167969 125.835938 170.855469 124.867188 170.804688 C 124.253906 170.277344 123.15625 170.234375 122.746094 171.050781 C 121.96875 171.230469 121.296875 170.96875 121.148438 170.164062 C 119.757812 169.722656 118.238281 169.941406 116.804688 169.804688 C 116.21875 169.71875 116.675781 169.039062 117.105469 169.125 M 128.015625 174.261719 C 127.367188 174.402344 127.300781 175.257812 127.042969 175.757812 C 127.511719 175.933594 128.601562 174.496094 128.015625 174.261719 Z M 38.980469 168.863281 C 39.46875 168.707031 40.449219 169.304688 39.882812 169.804688 C 39.410156 170.121094 38.296875 169.355469 38.980469 168.863281 Z M 115.6875 167.644531 C 116.433594 167.3125 116.761719 168.5625 115.949219 168.542969 C 115.179688 168.957031 114.90625 167.632812 115.6875 167.644531 Z M 104.417969 167.367188 C 106.347656 167.164062 104.410156 169.007812 104.933594 169.992188 C 104.25 171.519531 103.121094 169.328125 104.308594 169.113281 C 104.972656 168.460938 103.558594 167.765625 104.417969 167.367188 Z M 39.828125 166.839844 C 40.09375 167.070312 40.566406 167.246094 40.792969 167.527344 C 40.609375 168.640625 38.40625 167.296875 39.828125 166.839844 Z M 127.265625 166.417969 C 128.605469 166.25 127.589844 167.582031 127.75 168.21875 C 128.070312 168.3125 128.726562 168.429688 128.65625 168.882812 C 128.167969 169.933594 126.582031 169.019531 127.269531 168.070312 C 126.726562 167.5625 126.175781 166.644531 127.265625 166.417969 Z M 40.378906 165.859375 C 40.800781 165.832031 41.089844 166.539062 40.570312 166.707031 C 39.996094 166.894531 39.914062 166.035156 40.378906 165.859375 Z M 115.34375 165.414062 C 115.914062 165.285156 116.84375 165.769531 116.429688 166.4375 C 115.796875 167.214844 114.433594 165.972656 115.34375 165.414062 Z M 61.929688 164.960938 C 62.363281 164.90625 62.292969 165.472656 62.65625 165.554688 C 63.40625 165.835938 62.492188 166.699219 63.128906 167.105469 C 64.058594 167.695312 62.984375 169.261719 64.136719 169.484375 C 64.722656 170.355469 62.710938 170.753906 63.015625 169.679688 C 63.5 168.902344 61.960938 168.523438 62.492188 167.746094 C 63.007812 166.902344 60.988281 166.546875 61.878906 165.796875 C 62.597656 165.6875 61.472656 165.363281 61.929688 164.960938 Z M 115.351562 163.472656 C 116.105469 163.191406 116.902344 164.246094 116.027344 164.644531 C 115.839844 166.183594 114.46875 163.835938 115.351562 163.472656 Z M 105.457031 163.476562 C 106.027344 163.484375 106.878906 164.175781 106.019531 164.566406 C 105.976562 165.046875 105.214844 165.460938 105.949219 165.785156 C 106.035156 166.609375 104.703125 166.671875 104.578125 165.878906 C 104.34375 165.105469 105.386719 165.117188 105.589844 164.53125 C 105.246094 164.304688 104.925781 163.683594 105.457031 163.476562 Z M 106.085938 162.757812 C 106.449219 162.636719 106.664062 163.351562 106.207031 163.367188 C 105.808594 163.464844 105.765625 162.882812 106.085938 162.757812 Z M 41.308594 162.082031 C 41.863281 162.066406 42.183594 163.96875 41.074219 163.894531 C 41.285156 164.191406 41.175781 164.441406 40.878906 164.617188 C 40.9375 164.941406 41.628906 165.097656 41.332031 165.5 C 40.785156 166.128906 39.410156 165.5 40.050781 164.667969 C 40.496094 164.527344 41.125 163.917969 40.601562 163.519531 C 40.214844 162.851562 40.96875 162.527344 41.308594 162.082031 Z M 106.167969 161.535156 C 106.636719 161.550781 107.449219 162.257812 106.753906 162.585938 C 105.996094 163.078125 105.273438 161.777344 106.167969 161.535156 Z M 60.644531 161.445312 C 61.304688 161.339844 62.058594 162.175781 61.636719 162.8125 C 61.351562 163.5625 62.800781 163.726562 62.351562 164.488281 C 62.085938 165.285156 60.648438 164.628906 61.144531 163.914062 C 61.535156 163.136719 60.007812 162.90625 60.570312 162.210938 C 60.800781 161.972656 60.328125 161.660156 60.644531 161.445312 Z M 50.824219 161.941406 C 50.863281 161.011719 51.742188 161.367188 51.503906 162.074219 C 52.507812 162.53125 51.394531 163.480469 51.4375 164.101562 C 52.535156 164.441406 51.75 165.539062 51.304688 166.09375 C 52.640625 166.332031 51.117188 167.5625 51.597656 168.265625 C 52.167969 168.453125 51.726562 169.09375 51.625 169.480469 C 55.5 169.191406 59.496094 169.667969 63.121094 171.097656 C 63.652344 171.050781 64.226562 170.894531 64.722656 171.203125 C 64.652344 171.851562 64.695312 172.449219 65.347656 172.789062 C 64.875 174.566406 63.898438 176.660156 62.019531 177.511719 C 60.367188 178.105469 58.617188 178.34375 56.894531 178.609375 C 51.863281 178.808594 46.699219 179.078125 41.792969 177.742188 C 39.605469 177.117188 38.226562 175.230469 37.238281 173.3125 L 37.238281 172.851562 C 37.597656 172.144531 38.113281 171.523438 38.371094 170.761719 C 38.878906 170.515625 39.066406 171.363281 39.609375 170.9375 C 42.875 169.996094 46.242188 169.382812 49.648438 169.339844 C 50.042969 169.355469 50.484375 169.421875 50.792969 169.6875 C 50.914062 170.386719 49.421875 169.707031 49.640625 170.441406 C 49.769531 170.773438 48.742188 170.6875 49.214844 170.917969 C 49.628906 170.820312 49.84375 171.339844 49.421875 171.421875 C 48.820312 171.671875 50.207031 171.820312 49.582031 172.082031 C 48.773438 172.386719 49.957031 172.621094 49.730469 173.152344 C 47.082031 173.714844 44.238281 173.183594 41.695312 174.136719 C 40.75 173.632812 40.070312 172.640625 39.8125 171.613281 C 39.175781 171.714844 38.601562 172.316406 38.402344 172.886719 C 38.683594 173.152344 39.039062 173.375 39.042969 173.84375 C 42.515625 175.253906 46.335938 174.945312 50.003906 175.195312 C 50.65625 175.496094 50.601562 174.46875 51.183594 174.578125 C 51.824219 174.28125 51.613281 175.171875 52.035156 175.195312 C 56.019531 175.214844 60.085938 174.992188 63.894531 173.734375 C 64.328125 173.398438 64.09375 172.675781 64.027344 172.214844 C 60.183594 170.449219 55.859375 170.097656 51.679688 170.140625 C 50.71875 170.304688 51.582031 168.992188 50.578125 168.726562 C 51.226562 167.808594 49.875 166.550781 51.027344 165.96875 C 51.351562 165.324219 50.457031 165.09375 50.605469 164.503906 C 51.480469 163.777344 49.890625 162.703125 50.824219 161.941406 M 46.710938 170.300781 C 45.433594 170.746094 44.09375 170.914062 42.785156 171.269531 C 43.203125 171.445312 44.5 171.039062 44.015625 171.710938 C 43.9375 171.863281 44.410156 171.9375 44.179688 172.125 C 43.710938 172.753906 45.621094 172.121094 44.992188 172.667969 C 44.636719 173.015625 43.375 172.722656 43.546875 173.171875 C 45.167969 172.761719 46.945312 173.03125 48.511719 172.542969 C 48.117188 171.914062 48.195312 171.234375 48.09375 170.566406 C 48.773438 169.914062 47.019531 170.375 46.710938 170.300781 M 42.949219 171.878906 C 42.507812 171.988281 42.023438 172.011719 41.636719 172.273438 C 41.65625 172.585938 43.589844 171.78125 42.949219 171.878906 M 63.449219 174.714844 C 62.320312 174.816406 61.953125 175.65625 61.6875 176.644531 C 62.351562 176.90625 64.023438 175.144531 63.449219 174.714844 Z M 115.765625 160.550781 C 116.585938 160.425781 115.664062 161.316406 116.351562 161.429688 C 117.027344 161.835938 116.183594 162.332031 115.933594 162.550781 C 116.6875 163.246094 115.238281 163.554688 115.609375 162.605469 C 115.066406 162.382812 114.695312 161.414062 115.460938 161.25 C 115.925781 161.230469 115.523438 160.753906 115.765625 160.550781 Z M 115.84375 159.410156 C 116.507812 159.300781 116.757812 160.226562 116.027344 160.332031 C 115.1875 160.769531 114.828125 159.242188 115.84375 159.410156 Z M 50.789062 157.992188 C 51.425781 157.679688 52.398438 158.269531 51.777344 158.910156 C 50.53125 159.523438 52.71875 160.441406 51.648438 161.109375 C 51.234375 161.140625 50.429688 160.941406 50.46875 160.386719 C 50.699219 159.957031 51.003906 159.550781 51.074219 159.058594 C 50.699219 158.875 50.265625 158.273438 50.789062 157.992188 Z M 59.464844 157.730469 C 59.941406 157.851562 60.703125 158.429688 60.421875 159.046875 C 60.011719 159.808594 61.554688 160.1875 61.113281 160.949219 C 60.707031 161.074219 59.589844 161.265625 59.878906 160.53125 C 60.378906 159.347656 58.273438 158.847656 59.464844 157.730469 Z M 107.773438 157.574219 C 108.191406 157.886719 108.277344 158.777344 107.570312 158.960938 C 107.484375 159.773438 107.5625 160.84375 106.746094 161.421875 C 106.296875 161.359375 106.722656 160.726562 106.332031 160.5 C 105.640625 159.574219 107.636719 159.535156 107.046875 158.660156 C 106.480469 158.035156 107.261719 157.714844 107.773438 157.574219 Z M 123.78125 157.191406 C 124.851562 156.816406 125.15625 157.738281 124.878906 158.542969 C 125.941406 158.835938 125.378906 159.84375 125.453125 160.605469 C 126.851562 160.570312 125.546875 161.988281 126.210938 162.488281 C 126.84375 162.457031 127.027344 163.226562 126.515625 163.566406 C 126.117188 164.253906 127.617188 164.390625 127.113281 165.121094 C 126.855469 165.890625 125.488281 165.511719 125.988281 164.738281 C 126.46875 163.96875 125.179688 163.691406 125.335938 162.976562 C 126.742188 162.28125 124.125 161.976562 124.667969 160.972656 C 125.792969 160.371094 123.179688 159.644531 124.28125 158.886719 C 124.191406 158.429688 122.917969 157.695312 123.78125 157.191406 Z M 42.867188 156.472656 C 43.664062 156.40625 43.875 158.132812 43.09375 158.414062 C 42.304688 158.894531 43.359375 160.007812 42.503906 160.394531 C 41.960938 160.699219 42.703125 162.429688 41.714844 161.644531 C 40.511719 161.476562 41.378906 160.644531 41.824219 160.175781 C 41.453125 159.449219 42.078125 158.933594 42.367188 158.335938 C 41.796875 157.65625 42.589844 157.097656 42.867188 156.472656 Z M 108.207031 155.347656 C 108.777344 155.324219 108.804688 155.972656 108.46875 156.300781 C 109.113281 156.890625 108.027344 157.671875 107.53125 157.035156 C 106.945312 156.4375 107.71875 155.71875 108.207031 155.347656 Z M 51.140625 155.355469 C 51.695312 155.195312 51.675781 155.984375 51.957031 156.269531 C 52.199219 156.890625 51.300781 156.960938 51.382812 157.492188 C 50.992188 157.859375 51.121094 156.921875 50.734375 156.804688 C 50.25 156.097656 51.523438 156.066406 51.140625 155.355469 Z M 43.527344 154.851562 C 44.144531 154.636719 43.507812 155.460938 43.960938 155.625 C 44.503906 156.429688 42.652344 156.386719 42.765625 155.617188 C 42.890625 155.246094 43.378906 155.214844 43.527344 154.851562 Z M 108.148438 154.019531 C 108.71875 153.765625 109.488281 154.460938 109.019531 154.992188 C 108.527344 155.796875 107.390625 154.425781 108.148438 154.019531 Z M 115.351562 153.925781 C 115.742188 153.859375 116.648438 153.925781 116.410156 154.558594 C 116.097656 154.914062 115.761719 155.652344 116.355469 155.867188 C 116.972656 156.445312 115.449219 157.035156 116.332031 157.636719 C 117.179688 158.195312 115.761719 158.410156 116.066406 159.019531 C 115.507812 159.421875 115.851562 158.523438 115.449219 158.425781 C 114.828125 158.085938 115.289062 157.496094 115.554688 157.09375 C 115.101562 156.648438 114.902344 155.835938 115.722656 155.667969 C 115.40625 155.222656 114.601562 154.382812 115.351562 153.925781 Z M 51.121094 153.5 C 51.550781 153.433594 51.820312 154.066406 52.019531 154.402344 C 52.253906 155.324219 50.355469 155.3125 50.574219 154.398438 C 50.769531 154.105469 51.054688 153.871094 51.121094 153.5 Z M 115.761719 153.132812 C 116.066406 153 116.371094 153.539062 116.007812 153.65625 C 115.65625 153.945312 115.34375 153.269531 115.761719 153.132812 Z M 44.195312 152.597656 C 44.742188 152.503906 44.605469 153.132812 44.347656 153.398438 C 44.382812 153.683594 44.910156 153.917969 44.617188 154.261719 C 44.109375 154.980469 42.871094 154.015625 43.429688 153.371094 C 43.746094 153.175781 43.980469 152.894531 44.195312 152.597656 Z M 50.945312 152.164062 C 51.769531 151.800781 52.300781 153.152344 51.355469 153.097656 C 50.742188 153.523438 50.28125 152.335938 50.945312 152.164062 Z M 44.289062 151.375 C 44.726562 151.199219 45.734375 151.703125 45.105469 152.140625 C 44.542969 152.683594 43.324219 151.734375 44.289062 151.375 Z M 115.351562 149.78125 C 116.125 149.410156 116.792969 150.660156 115.910156 150.898438 C 115.515625 151.609375 117.066406 151.988281 116.425781 152.65625 C 116.042969 153.289062 114.640625 152.507812 115.484375 151.980469 C 115.898438 151.6875 115.140625 151.355469 115.5 150.980469 C 115.25 150.6875 114.683594 150.050781 115.351562 149.78125 Z M 51.03125 149.597656 C 51.601562 149.453125 51.511719 150.238281 51.863281 150.503906 C 52.261719 151.109375 51.089844 151.339844 51.371094 152 C 51.023438 152.21875 50.84375 151.691406 51.058594 151.449219 C 50.1875 151.113281 50.820312 150.183594 51.03125 149.597656 Z M 45.363281 148.902344 C 45.960938 148.792969 45.273438 149.457031 45.667969 149.6875 C 46.109375 150.449219 44.664062 150.777344 44.515625 149.925781 C 44.183594 149.277344 45.136719 149.304688 45.363281 148.902344 Z M 110.503906 147.925781 C 111.066406 148 110.957031 148.550781 110.59375 148.78125 C 111.550781 149.242188 110.394531 150.015625 110.0625 150.542969 C 111.132812 151.101562 109.574219 151.792969 109.5 152.347656 C 110.492188 152.71875 109.023438 153.988281 108.707031 153.019531 C 108.007812 152.296875 109.597656 152.035156 109.121094 151.285156 C 108.503906 150.484375 110.027344 150.347656 109.644531 149.539062 C 109.277344 148.820312 110 148.324219 110.503906 147.925781 Z M 45.285156 147.570312 C 45.808594 147.375 46.65625 148.074219 46.121094 148.53125 C 45.488281 148.945312 44.464844 148.039062 45.285156 147.570312 Z M 115.347656 145.976562 C 117.347656 145.59375 115.246094 147.636719 116.34375 148.265625 C 116.703125 149.375 114.335938 148.65625 115.34375 147.84375 C 116.070312 147.199219 114.613281 146.457031 115.347656 145.976562 Z M 111.046875 145.96875 C 111.539062 145.957031 111.316406 146.34375 111.027344 146.488281 C 111.316406 146.75 111.945312 147.132812 111.507812 147.582031 C 110.976562 148.25 109.804688 147.367188 110.1875 146.65625 C 110.449219 146.359375 110.988281 146.445312 111.046875 145.96875 Z M 45.894531 145.714844 C 46.582031 145.609375 47.457031 146.507812 46.609375 146.980469 C 45.953125 148.109375 45.101562 146.074219 45.894531 145.714844 Z M 51.21875 144.585938 C 51.742188 144.363281 52.160156 145.304688 51.613281 145.511719 C 51.195312 145.660156 51.550781 146.179688 51.269531 146.472656 C 52.007812 146.550781 52.140625 147.792969 51.207031 147.550781 C 51.285156 148.160156 51.964844 148.554688 51.878906 149.1875 C 51.441406 149.867188 50.195312 149.039062 50.582031 148.316406 C 51.371094 147.742188 50.140625 147.253906 50.59375 146.632812 C 51.523438 146.003906 49.636719 144.71875 51.21875 144.585938 Z M 46.328125 144.039062 C 46.773438 144.003906 47.425781 144.183594 47.445312 144.71875 C 47.28125 145.636719 45.332031 144.546875 46.328125 144.039062 Z M 115.753906 143.15625 C 116.082031 143.179688 115.957031 143.609375 115.832031 143.824219 C 116.097656 144.011719 116.546875 144.1875 116.433594 144.597656 C 116.035156 145.121094 114.769531 144.972656 115.152344 144.09375 C 115.554688 143.890625 115.417969 143.359375 115.753906 143.15625 Z M 47.179688 142.375 C 47.6875 142.304688 48.097656 143.09375 47.5 143.273438 C 46.953125 143.296875 47.496094 144.132812 46.84375 144 C 47.300781 143.359375 45.886719 142.4375 47.179688 142.375 Z M 115.792969 142.109375 C 116.542969 141.726562 116.671875 142.996094 115.941406 142.925781 C 115.070312 143.320312 114.992188 142.109375 115.792969 142.109375 Z M 112.382812 141.742188 C 113.246094 141.8125 112.222656 142.707031 112.765625 143.148438 C 112.519531 143.574219 112.179688 144.066406 111.824219 144.460938 C 112.144531 144.746094 112.300781 145.222656 111.886719 145.511719 C 111.144531 146.0625 110.230469 144.625 111.199219 144.359375 C 112.105469 144.136719 111.027344 143.195312 111.351562 142.6875 C 111.742188 142.429688 111.980469 141.976562 112.382812 141.742188 Z M 54.210938 141.648438 C 54.605469 141.59375 54.511719 142.394531 55.058594 142.183594 C 55.9375 142.425781 54.535156 143.5625 55.367188 143.824219 C 55.785156 143.910156 56.066406 144.5 55.714844 144.816406 C 55.304688 145.1875 56.089844 145.480469 56.246094 145.792969 C 56.730469 146.253906 55.890625 147.230469 56.6875 147.386719 C 57.152344 147.566406 56.457031 148.164062 56.839844 148.453125 C 57.253906 148.898438 57.859375 149.457031 57.339844 150.03125 C 57.058594 150.96875 58.554688 150.882812 58.078125 151.722656 C 57.644531 152.054688 58.308594 152.347656 57.96875 152.75 C 58.34375 152.871094 59.070312 152.988281 58.746094 153.558594 C 58.058594 154.082031 59.257812 154.59375 59.328125 155.125 C 58.183594 155.742188 60.503906 156.429688 59.726562 157.296875 C 59.242188 157.777344 58.230469 157.171875 58.75 156.542969 C 59.472656 155.757812 57.582031 155.675781 58.011719 154.898438 C 58.472656 154.617188 57.910156 154.195312 58.269531 153.8125 C 57.46875 153.984375 57.085938 153.101562 57.824219 152.773438 C 57.429688 152.5625 57.480469 152.25 57.746094 151.945312 C 57.449219 151.859375 57.039062 151.917969 56.832031 151.636719 C 56.375 151.160156 57.390625 150.730469 56.8125 150.257812 C 56.222656 150.097656 55.9375 149.507812 56.472656 149.121094 C 56.117188 148.347656 55.203125 147.804688 55.785156 146.898438 C 55.03125 146.558594 54.726562 145.617188 55.253906 144.972656 C 55.101562 144.640625 54.097656 144.777344 54.554688 144.101562 C 55.074219 143.308594 53.226562 142.964844 54.121094 142.355469 C 54.660156 142.175781 53.863281 141.929688 54.210938 141.648438 Z M 118.960938 141.480469 C 119.503906 141.773438 120.675781 142.316406 119.816406 143.035156 C 121.167969 143.390625 119.625 144.789062 120.835938 145.121094 C 121.640625 145.363281 120.902344 146.140625 120.886719 146.640625 C 121.179688 146.808594 121.792969 146.9375 121.523438 147.398438 C 121.132812 148.117188 122.308594 148.414062 122.382812 149.035156 C 122.070312 149.402344 122.210938 149.898438 122.15625 150.339844 C 122.898438 150.421875 122.722656 151.1875 122.703125 151.726562 C 122.878906 152.003906 123.515625 152.160156 123.269531 152.589844 C 122.710938 153.378906 124.339844 153.804688 123.761719 154.636719 C 123.96875 155.375 125.300781 156.039062 124.207031 156.878906 C 122.996094 156.949219 122.910156 155.621094 122.988281 154.765625 C 122.109375 154.546875 122.925781 153.414062 122.183594 153.058594 C 121.664062 152.847656 121.929688 152.21875 122.09375 151.914062 C 121.015625 151.21875 122.050781 149.84375 120.75 149.339844 C 121.449219 148.226562 119.621094 147.722656 120.34375 146.769531 C 119.945312 146.289062 119.511719 145.65625 119.96875 145.066406 C 119.839844 144.726562 118.859375 144.347656 119.363281 143.835938 C 119.941406 143.148438 118.269531 142.996094 118.679688 142.265625 C 118.824219 142.015625 118.675781 141.632812 118.960938 141.480469 Z M 112.210938 140.496094 C 112.710938 140.433594 113.8125 140.964844 113.0625 141.460938 C 112.460938 142.085938 111.546875 140.953125 112.210938 140.496094 Z M 115.761719 140.230469 C 116.984375 140.265625 115.324219 141.234375 115.761719 140.230469 Z M 53.519531 139.796875 C 54.109375 139.65625 54.011719 140.628906 54.644531 140.621094 C 54.894531 141.523438 52.875 141.46875 53.421875 140.609375 C 53.769531 140.382812 53.195312 139.996094 53.519531 139.796875 Z M 51.023438 139.703125 C 51.738281 139.890625 51.164062 140.695312 51.601562 141.152344 C 50.710938 141.316406 51.800781 142.035156 51.390625 142.570312 C 52.089844 142.695312 51.75 143.886719 51.117188 143.46875 C 49.898438 143.347656 51.230469 142.167969 50.695312 141.589844 C 50.460938 141.339844 50.269531 140.730469 50.714844 140.632812 C 51.59375 140.703125 50.398438 139.949219 51.023438 139.703125 Z M 112.660156 138.824219 C 113.054688 138.734375 113.839844 138.996094 113.769531 139.5 C 113.324219 139.898438 112.042969 139.5 112.660156 138.824219 Z M 50.769531 138.550781 C 51.21875 138.511719 52.082031 138.609375 51.746094 139.269531 C 51.234375 139.921875 50.011719 139.15625 50.769531 138.550781 Z M 115.523438 138.042969 C 116.105469 137.679688 116.734375 138.640625 116.082031 138.90625 C 115.457031 139.355469 114.664062 138.207031 115.523438 138.042969 Z M 52.820312 137.773438 C 53.429688 137.621094 53.535156 138.421875 53.992188 138.664062 C 54.519531 139.449219 52.269531 139.929688 52.890625 138.847656 C 53.582031 138.492188 52.292969 138.234375 52.820312 137.773438 Z M 113.613281 136.984375 C 114.179688 136.933594 114.75 137.777344 114.070312 138.050781 C 113.238281 138.488281 112.753906 137.097656 113.613281 136.984375 Z M 50.65625 136.605469 C 51.089844 136.820312 51.957031 136.488281 51.703125 137.351562 C 51.234375 137.921875 49.878906 137.371094 50.65625 136.605469 Z M 115.5 136.269531 C 115.882812 136.222656 116.722656 136.234375 116.476562 136.816406 C 116.164062 137.007812 114.558594 136.886719 115.5 136.269531 Z M 52.191406 135.644531 C 52.730469 135.542969 52.84375 136.355469 53.273438 136.558594 C 53.804688 137.292969 52.339844 137.652344 52.078125 136.984375 C 51.785156 136.425781 52.554688 136.652344 52.585938 136.261719 C 52.335938 136.183594 51.828125 135.910156 52.191406 135.644531 Z M 117.253906 135.570312 C 118.152344 135.644531 116.949219 137.117188 117.980469 137.277344 C 118.441406 137.390625 118.144531 137.953125 117.839844 138.097656 C 118.210938 138.449219 119.261719 138.671875 118.6875 139.363281 C 118.140625 140.167969 119.898438 140.054688 119.5 140.855469 C 119.171875 141.238281 117.835938 141.488281 118.078125 140.632812 C 118.589844 140.21875 117.800781 139.730469 117.535156 139.460938 C 117.035156 139.019531 118.261719 137.851562 117.207031 137.976562 C 116.722656 137.820312 117.136719 137.316406 117.230469 137.035156 C 117.351562 136.386719 116.417969 136.496094 116.441406 135.894531 C 116.535156 135.574219 116.972656 135.625 117.253906 135.570312 Z M 113.910156 135.210938 C 114.609375 135.015625 115.515625 136.222656 114.324219 136.183594 C 113.625 136.597656 113.117188 135.371094 113.910156 135.210938 Z M 49.4375 134.9375 C 49.851562 135.046875 50.109375 136.203125 49.667969 136.507812 C 49.0625 136.789062 49.871094 137.730469 49.136719 137.847656 C 48.550781 137.859375 49.03125 138.480469 48.921875 138.847656 C 49.417969 139.683594 47.539062 140.136719 48.390625 140.882812 C 48.601562 141.777344 46.757812 141.605469 47.222656 140.644531 C 48.363281 140.09375 47.011719 138.480469 48.539062 137.957031 C 48.292969 137.4375 48.480469 136.921875 48.9375 136.496094 C 48.472656 135.933594 48.976562 135.320312 49.4375 134.9375 Z M 52.019531 134.34375 C 52.585938 134.171875 52.964844 135.203125 52.363281 135.402344 C 51.871094 135.488281 51.183594 135.011719 50.867188 135.59375 C 50.359375 135.742188 50.171875 134.683594 50.71875 134.664062 C 51.179688 134.945312 51.570312 134.433594 52.019531 134.34375 Z M 83.5625 133.894531 C 84.066406 133.574219 84.96875 134.257812 84.304688 134.664062 C 83.667969 134.746094 83.5 135.878906 82.808594 135.515625 C 82.257812 134.910156 82.804688 133.953125 83.5625 133.894531 Z M 51.210938 133.640625 C 50.265625 134.074219 51.507812 134.695312 51.210938 133.640625 Z M 83.359375 103.113281 L 85.292969 103.113281 C 86.746094 103.394531 88.214844 103.6875 89.601562 104.179688 C 90.691406 105.195312 89.339844 106.683594 89.128906 107.808594 C 88.511719 109.03125 86.859375 107.617188 85.96875 108.339844 C 85.726562 111.355469 86.058594 114.390625 85.867188 117.40625 C 85.507812 119.046875 86.796875 120.496094 86.21875 122.160156 C 85.902344 123.253906 87.570312 122.898438 87.980469 123.664062 C 98.53125 123.4375 109.113281 123.558594 119.644531 123.414062 C 120.609375 123.949219 120.433594 125.675781 119.246094 125.792969 C 118.140625 125.855469 116.511719 125.132812 116.105469 126.617188 C 116.566406 126.867188 117.285156 127.207031 117.066406 127.863281 C 116.371094 128.839844 117.328125 130.578125 115.839844 131.058594 C 116.03125 131.398438 117.066406 131.796875 116.570312 132.382812 C 115.875 133.117188 117.976562 133.839844 116.683594 134.433594 C 115.972656 134.875 117.738281 134.625 117.09375 135.316406 C 116.539062 135.105469 115.933594 135.253906 115.332031 135.21875 C 115.300781 134.5 114.664062 134.617188 114.167969 134.429688 C 113.765625 133.359375 115.546875 133.574219 115.351562 134.457031 C 116.003906 134.945312 116.03125 134.355469 115.742188 133.886719 C 117.023438 133.5 115.527344 133.582031 114.957031 133.480469 C 114.78125 132.824219 114.402344 131.839844 115.359375 131.539062 C 114.652344 130.671875 115.015625 129.367188 114.488281 128.359375 C 114.085938 127.644531 114.828125 127.148438 114.992188 126.558594 C 114.523438 126.316406 114.445312 125.542969 113.773438 125.746094 C 106.960938 126.152344 100.132812 126.199219 93.3125 126.320312 C 91.164062 126.65625 88.570312 125.625 86.75 127.203125 C 85.9375 128.257812 85.640625 129.632812 85.777344 130.945312 C 85.566406 137.597656 85.90625 144.265625 85.800781 150.914062 C 85.878906 167.566406 85.835938 184.230469 85.777344 200.871094 C 85.820312 201.15625 85.417969 201.816406 85.882812 201.941406 C 87.683594 202.003906 89.371094 202.742188 91.171875 202.816406 C 96.621094 203.027344 102.082031 202.9375 107.527344 202.890625 C 109.585938 203.390625 110.019531 207.398438 107.503906 207.578125 C 102.425781 208.1875 97.238281 207.488281 92.132812 207.734375 C 90.148438 207.75 88.398438 208.671875 86.445312 208.863281 L 80.914062 208.863281 C 78.644531 208.535156 76.40625 207.765625 74.089844 207.984375 C 69.421875 208.148438 64.753906 207.808594 60.082031 208.058594 C 58.773438 208.125 56.910156 207.070312 57.476562 205.542969 C 57.597656 204.289062 58.441406 203.109375 59.816406 203.148438 C 66.867188 202.476562 74.066406 203.738281 81.015625 202.074219 C 80.96875 193.355469 80.898438 184.300781 81.105469 175.472656 C 81.113281 159.945312 81.136719 144.40625 81.042969 128.886719 C 81.011719 127.460938 79.546875 126.5 78.214844 126.476562 C 69.832031 126.335938 61.453125 126.214844 53.074219 125.914062 C 52.488281 125.71875 52.292969 126.300781 52.023438 126.660156 C 51.601562 126.597656 51.945312 125.949219 51.542969 125.867188 C 51.195312 125.828125 50.4375 125.636719 50.546875 126.21875 C 51.027344 126.851562 52.050781 126.738281 52.421875 127.515625 C 52.746094 128.097656 51.914062 128.496094 52.03125 129.074219 C 52.113281 129.921875 52.15625 130.953125 51.320312 131.457031 C 50.78125 131.910156 52.164062 131.777344 51.949219 132.339844 C 51.667969 132.878906 51.675781 133.480469 52.152344 133.886719 C 52.03125 134.605469 51.46875 133.882812 51.210938 133.640625 C 50.929688 133.214844 50.316406 133.519531 50.414062 133.996094 C 50.683594 134.765625 49.398438 134.921875 49.242188 134.269531 C 49.109375 133.539062 50.429688 133.550781 50.140625 132.773438 C 49.855469 132.167969 50.585938 131.679688 50.257812 131.078125 C 49.886719 130.414062 49.921875 129.664062 50.082031 128.941406 C 49.648438 128.445312 49.472656 127.632812 49.90625 127.097656 C 50.742188 126.800781 49.902344 128.441406 50.804688 128.382812 C 50.601562 127.738281 51.261719 127.730469 51.695312 127.894531 C 51.753906 126.984375 50.316406 127.226562 50.136719 126.425781 C 49.769531 124.847656 47.304688 126.679688 46.628906 125.347656 C 46.28125 124.84375 46.472656 123.902344 47.15625 123.828125 C 57.667969 123.832031 68.195312 123.625 78.707031 123.742188 C 79.242188 123.246094 79.90625 123.03125 80.640625 122.988281 C 80.957031 121.675781 80.402344 120.09375 81.449219 118.996094 C 81.972656 116.257812 81.109375 113.039062 81.953125 110.488281 C 81.15625 110.046875 81.875 109.015625 81.539062 108.359375 C 80.550781 107.769531 79.019531 108.980469 78.339844 107.6875 C 78.136719 106.589844 76.9375 105.214844 77.835938 104.175781 C 79.605469 103.546875 81.484375 103.226562 83.359375 103.113281 M 84.792969 103.910156 C 84.644531 104.214844 86.066406 104.324219 86.546875 104.25 C 85.996094 104.023438 85.390625 103.894531 84.792969 103.910156 M 81.78125 104.042969 C 81.398438 104.148438 80.71875 104.054688 80.578125 104.445312 C 81.4375 104.320312 82.304688 104.222656 83.160156 104.070312 C 82.804688 103.820312 82.199219 104.078125 81.78125 104.042969 M 86.960938 104.253906 C 87.15625 104.648438 87.691406 104.636719 88.023438 104.875 C 88.964844 105.171875 88.195312 106.429688 87.957031 106.953125 C 86.734375 107.042969 85.558594 106.257812 84.308594 106.3125 C 84.652344 111.210938 84.261719 116.144531 84.371094 121.039062 C 84.800781 121.328125 85.261719 121.683594 85.554688 122.097656 C 85.675781 121.246094 85.671875 120.054688 85.105469 119.257812 C 85.027344 115.644531 85.082031 112.015625 85.140625 108.402344 C 85.65625 107.246094 86.957031 107.554688 87.96875 107.601562 C 88.753906 107.023438 88.878906 105.964844 89.085938 105.078125 C 88.761719 104.292969 87.660156 104.414062 86.960938 104.253906 M 79.273438 104.738281 C 78 105.0625 79.082031 106.554688 79.253906 107.347656 C 80.242188 107.496094 82.046875 107.089844 82.402344 108.453125 C 82.71875 111.460938 82.265625 114.492188 82.347656 117.515625 C 82.679688 119.222656 80.953125 120.644531 81.523438 122.257812 C 82.113281 122.089844 82.070312 120.992188 82.964844 121.230469 C 83.242188 117.101562 83.09375 112.910156 83.234375 108.757812 C 83.199219 107.859375 83.25 106.929688 83.6875 106.121094 C 84.882812 105.640625 86.257812 105.988281 87.410156 106.453125 C 87.890625 106.410156 88.023438 104.792969 87.484375 105.59375 C 87.007812 106.035156 87.144531 104.726562 86.667969 105.296875 C 86.28125 105.765625 86.289062 104.617188 85.9375 105.09375 C 85.566406 105.882812 85.222656 104.113281 85.003906 105.144531 C 84.660156 105.8125 84.566406 104.0625 84.1875 104.941406 C 83.9375 105.761719 83.757812 104.894531 83.445312 104.808594 C 83.1875 105.570312 82.582031 104.46875 82.304688 105.203125 C 81.972656 105.179688 81.730469 104.785156 81.503906 105.289062 C 81.125 105.148438 80.824219 105.132812 80.664062 105.597656 C 80.105469 104.898438 79.820312 105.84375 80.339844 106.203125 C 81.265625 106.128906 82.230469 105.8125 83.140625 106.050781 C 83.300781 106.503906 82.730469 106.519531 82.425781 106.5625 C 81.621094 106.574219 80.875 106.910156 80.082031 106.988281 C 79.449219 106.476562 79.324219 105.164062 79.273438 104.738281 M 82.933594 121.96875 C 82.074219 122.054688 81.859375 123.21875 81.011719 123.433594 C 79.714844 123.664062 78.90625 124.773438 77.652344 125.183594 C 77.632812 124.042969 75.632812 125.949219 76.863281 125.785156 C 78.535156 125.503906 80.332031 126.117188 81.375 127.402344 C 81.863281 126.335938 81.042969 124.675781 81.792969 123.648438 C 82.949219 123.609375 84.292969 123.382812 85.476562 123.746094 C 85.921875 124.8125 85.503906 126.132812 85.738281 127.230469 C 86.777344 126.699219 87.148438 125.238281 88.390625 124.867188 C 89.507812 124.257812 87.925781 124.257812 87.441406 124.214844 C 86.796875 123.339844 85.414062 123.53125 84.929688 122.464844 C 84.652344 121.578125 83.597656 121.996094 82.933594 121.96875 M 83.199219 124.085938 C 82.105469 124.097656 82.738281 125.417969 82.859375 126.015625 C 83.121094 126.238281 83.539062 125.570312 83.800781 125.984375 C 84.128906 126.464844 83.476562 126.707031 83.121094 126.675781 C 82.871094 127.101562 83.28125 128.109375 83.800781 127.527344 C 84.054688 126.675781 84.164062 125.769531 84.46875 124.921875 C 84.84375 124.234375 83.6875 123.984375 83.199219 124.085938 M 100.753906 124.277344 C 99.953125 124.085938 98.164062 125.851562 99.855469 125.496094 C 101.667969 124.996094 104.390625 126.195312 105.421875 124.335938 C 103.960938 124.191406 102.296875 124.328125 100.753906 124.277344 M 113.847656 124.273438 C 113.53125 124.421875 113.238281 124.640625 112.996094 124.886719 C 112.964844 125.867188 114.949219 124.085938 113.847656 124.273438 M 107.429688 124.347656 C 107.007812 124.515625 106.503906 124.796875 106.339844 125.214844 C 106.683594 125.464844 108.054688 124.46875 107.429688 124.347656 M 106.191406 124.441406 C 105.871094 124.628906 105.445312 124.84375 105.339844 125.199219 C 105.507812 125.335938 106.832031 124.390625 106.191406 124.441406 M 59.835938 124.542969 C 59.433594 124.714844 58.605469 124.9375 58.675781 125.429688 C 60.453125 125.398438 62.355469 125.726562 64.058594 125.207031 C 64.488281 125.457031 64.945312 125.34375 65.214844 124.929688 C 64.6875 125.183594 64.644531 125.097656 64.867188 124.582031 C 63.234375 124.355469 61.507812 124.570312 59.835938 124.542969 M 66.617188 124.511719 C 66.292969 124.820312 65.660156 125.023438 65.597656 125.453125 C 66.136719 125.476562 66.527344 124.976562 67.054688 124.933594 C 67.117188 125.164062 66.476562 125.46875 66.890625 125.542969 C 67.460938 125.117188 68.527344 125.398438 68.640625 124.5 C 67.964844 124.460938 67.289062 124.480469 66.617188 124.511719 M 57.503906 124.613281 C 57.136719 124.707031 56.25 125.425781 57.035156 125.445312 C 57.378906 125.476562 58.601562 125.175781 57.8125 125.160156 C 57.25 125.292969 58.039062 124.484375 57.503906 124.613281 M 74.394531 124.707031 C 74.011719 124.824219 73.601562 125.125 73.570312 125.550781 C 73.929688 125.566406 74.691406 124.75 74.394531 124.707031 M 108.671875 124.78125 C 108.136719 124.902344 108.410156 125.582031 108.886719 125.203125 C 109.613281 125.113281 109.058594 124.636719 108.671875 124.78125 M 85.027344 124.839844 C 84.488281 125.769531 84.46875 126.886719 84.183594 127.898438 C 84.019531 128.605469 82.804688 128.335938 82.777344 127.671875 C 82.550781 126.8125 82.78125 125.597656 82.164062 124.933594 C 81.972656 126.460938 82.039062 128.339844 82.082031 129.96875 C 82.984375 130.042969 84.289062 130.414062 85.015625 129.746094 C 84.78125 128.144531 85.453125 126.304688 85.027344 124.839844 M 76.0625 125.050781 C 74.675781 125.691406 76.125 125.757812 76.0625 125.050781 M 98.046875 125.066406 C 97.625 125.265625 97.148438 125.257812 96.707031 125.363281 C 97.210938 126.042969 99.558594 125.109375 98.046875 125.066406 M 115.402344 125.667969 C 114.796875 125.703125 115.304688 126.730469 115.675781 126.207031 C 116.117188 125.925781 115.851562 125.574219 115.402344 125.667969 M 115.765625 126.808594 C 115.304688 126.996094 114.898438 127.511719 115.1875 128.015625 C 115.929688 127.972656 116.558594 127.15625 115.765625 126.808594 M 51.097656 128.695312 C 50.503906 129.144531 50.4375 130.207031 51.09375 130.621094 C 51.59375 130.179688 51.621094 129.136719 51.097656 128.695312 M 115.652344 128.808594 C 115.46875 129.128906 115.339844 130.050781 115.808594 130.054688 C 115.859375 129.679688 116.171875 128.859375 115.652344 128.808594 M 83.566406 130.683594 C 82.777344 131.609375 83.359375 133.558594 84.914062 133.117188 C 84.949219 132.042969 85.371094 130.023438 83.566406 130.683594 M 81.894531 130.777344 C 82.160156 131.621094 81.429688 132.871094 82.078125 133.53125 C 82.335938 132.792969 82.652344 130.96875 81.894531 130.777344 M 83.296875 133.460938 C 81.964844 133.496094 81.671875 135.292969 82.539062 136.058594 C 83.277344 136.5625 84.5625 136.410156 84.875 135.476562 C 85.308594 134.488281 84.382812 133.238281 83.296875 133.460938 M 81.972656 136.375 C 81.75 137.371094 82.011719 138.421875 81.839844 139.429688 C 81.964844 160.441406 81.765625 181.53125 81.832031 202.542969 C 82.160156 203.042969 82.390625 202.144531 82.222656 201.898438 C 82.105469 180.128906 82.335938 158.335938 82.257812 136.550781 C 82.167969 136.484375 82.070312 136.425781 81.972656 136.375 M 84.882812 136.890625 C 84.5625 137.109375 84.28125 137.410156 83.894531 137.507812 C 83.050781 137.652344 83.398438 138.769531 83.378906 139.375 C 83.496094 160.339844 83.15625 181.320312 83.382812 202.261719 C 83.125 203.265625 84.464844 202.96875 84.894531 202.648438 C 84.839844 181.316406 84.949219 159.921875 84.9375 138.570312 C 84.949219 138.097656 85.152344 137.128906 84.882812 136.890625 M 85.917969 202.601562 C 85.460938 203.160156 86.820312 203.671875 86.152344 204.246094 C 84.804688 205.023438 83.109375 204.777344 81.617188 204.648438 C 80.972656 204.621094 80.15625 203.761719 80.902344 203.277344 C 81.695312 202.730469 80.511719 202.53125 80.109375 202.832031 C 75.472656 204.109375 70.644531 203.601562 65.90625 203.707031 C 65.402344 203.734375 66.351562 204.042969 65.855469 204.128906 C 64.152344 204.207031 62.433594 203.863281 60.742188 204.246094 C 60.542969 204.347656 59.339844 204.140625 59.722656 204.527344 C 62.65625 204.128906 65.554688 204.761719 68.488281 204.535156 C 71.847656 204.714844 75.28125 204.242188 78.578125 205.101562 C 81.585938 205.710938 84.742188 205.882812 87.710938 205.011719 C 89.742188 204.355469 91.90625 204.457031 94.011719 204.4375 C 94.449219 204.296875 94.292969 203.53125 93.84375 203.570312 C 91.144531 203.753906 88.550781 202.964844 85.917969 202.601562 M 83.949219 203.335938 C 82.976562 203.050781 82.992188 204.675781 83.949219 204.359375 C 84.855469 204.644531 84.628906 203.238281 83.949219 203.335938 M 85.269531 203.324219 C 85.136719 204.324219 86.238281 203.589844 85.269531 203.324219 M 95.046875 203.609375 C 94.429688 203.613281 94.507812 204.601562 95.148438 204.449219 C 95.835938 204.195312 97.710938 205.058594 97.632812 203.855469 C 96.925781 203.375 95.894531 203.683594 95.046875 203.609375 M 100.582031 203.601562 C 99.960938 203.773438 98.441406 203.238281 98.894531 204.371094 C 99.667969 204.789062 100.707031 204.464844 101.535156 204.484375 C 102.070312 203.984375 101.136719 203.332031 100.582031 203.601562 M 102.242188 203.648438 C 102.0625 203.871094 102.023438 204.464844 102.410156 204.449219 C 102.914062 204.476562 102.597656 203.589844 102.242188 203.648438 M 98.078125 203.742188 C 97.496094 205.101562 99.125 203.976562 98.078125 203.742188 M 103.132812 203.730469 C 102.613281 204.871094 103.996094 204.101562 103.132812 203.730469 M 90.703125 204.902344 C 88.292969 205.265625 85.960938 206.234375 83.472656 205.996094 C 81.878906 206.320312 84.234375 206.285156 84.613281 206.3125 C 84.765625 206.835938 83.484375 206.40625 83.484375 206.90625 C 83.847656 207.257812 84.890625 206.625 84.730469 207.351562 C 84.324219 207.414062 83.863281 207.253906 83.492188 207.453125 C 83.546875 208.113281 85.195312 207.183594 84.949219 207.925781 C 84.109375 207.960938 83.175781 207.738281 82.339844 208.066406 C 81.773438 207.527344 82.753906 206.375 81.984375 206.027344 C 81.082031 206.222656 81.34375 207.71875 81.667969 208.242188 C 83.464844 208.132812 85.867188 208.554688 87.210938 207.449219 C 87.675781 208.230469 88.605469 207.273438 88.863281 206.9375 C 86.925781 207.050781 90.511719 205.246094 89.746094 206.65625 C 89.597656 207.476562 90.914062 207.484375 90.972656 206.792969 C 90.8125 206.257812 91.292969 205.175781 90.703125 204.902344 M 100.574219 205.011719 C 100.269531 206.117188 97.953125 205.21875 96.882812 205.671875 C 97.800781 205.820312 98.746094 205.726562 99.65625 205.953125 C 99.332031 206.613281 100.410156 206.222656 100.558594 206.648438 C 100.140625 206.871094 99.625 206.742188 99.183594 206.894531 C 100.027344 207.242188 101.003906 207.0625 101.898438 207.085938 C 101.980469 206.667969 102.101562 206.230469 102.496094 206.007812 C 101.984375 205.972656 101.921875 205.46875 101.761719 205.085938 C 101.402344 204.882812 100.96875 205.007812 100.574219 205.011719 M 61.6875 205.15625 C 62.703125 205.867188 64.558594 205.042969 65.859375 205.484375 C 67.050781 205.425781 68.269531 205.328125 69.460938 205.511719 C 69.519531 205.847656 68.851562 205.644531 68.847656 205.953125 C 69.292969 205.921875 70.476562 205.855469 69.65625 205.585938 C 70.464844 205.25 71.847656 205.859375 72.714844 205.191406 C 69.042969 205.164062 65.367188 205.179688 61.6875 205.15625 M 105.046875 205.355469 C 104.3125 205.671875 106.253906 206.050781 106.332031 205.421875 C 105.949219 205.199219 105.460938 205.363281 105.046875 205.355469 M 67.734375 205.734375 C 67.09375 205.816406 66.347656 205.742188 65.8125 205.945312 C 66.71875 206.128906 67.800781 206.089844 68.6875 205.878906 C 68.390625 205.746094 68.0625 205.644531 67.734375 205.734375 M 70.761719 205.722656 C 69.933594 205.902344 71.199219 206.382812 71.335938 206.640625 C 68.242188 207.339844 65.039062 207.058594 61.898438 206.964844 C 61.160156 207.152344 62.238281 207.566406 62.542969 207.375 C 65.867188 207.003906 69.261719 207.785156 72.496094 206.929688 C 72.21875 206.734375 71.777344 206.785156 71.488281 206.550781 C 71.800781 206.25 72.734375 206.464844 72.726562 205.875 C 72.101562 205.660156 71.414062 205.726562 70.761719 205.722656 M 79.886719 205.875 C 79.230469 206.253906 79.421875 207.390625 79.519531 207.972656 C 80.304688 208.039062 80.644531 205.996094 79.886719 205.875 M 105.421875 206.058594 C 105.144531 206.0625 104.734375 206.496094 105.207031 206.542969 C 106.128906 206.835938 107.011719 205.558594 105.421875 206.058594 M 63.113281 206.269531 C 62.792969 206.285156 61.726562 206.285156 62.28125 206.660156 C 63.992188 206.746094 65.726562 206.792969 67.445312 206.703125 C 67.570312 206.679688 68.019531 206.515625 67.671875 206.476562 C 66.140625 206.585938 64.636719 206.253906 63.113281 206.269531 M 102.640625 206.957031 C 101.996094 207.144531 103.640625 207.378906 103.75 207.015625 C 103.40625 206.855469 103.003906 206.910156 102.640625 206.957031 Z M 102.640625 206.957031 " fill-opacity="1" fill-rule="nonzero"/></g><g fill="#000000" fill-opacity="1"><g transform="translate(186.700261, 181.112487)"><g><path d="M -0.414062 14.769531 C 5.28125 14.769531 9.570312 12.128906 13.121094 7.015625 C 16.667969 1.816406 17.082031 -3.546875 17.082031 -10.5625 L 17.082031 -43.734375 C 17.082031 -51.078125 17.082031 -54.210938 23.597656 -55.863281 L 23.597656 -57.511719 L 2.96875 -57.511719 L 2.96875 -55.863281 C 9.488281 -54.210938 9.652344 -51.242188 9.652344 -43.734375 L 9.570312 -4.539062 C 9.570312 4.539062 8.25 9.324219 3.464844 9.324219 C 0.660156 9.324219 -1.648438 6.765625 -3.796875 6.765625 C -5.527344 6.765625 -6.929688 8.664062 -6.929688 10.644531 C -6.929688 13.449219 -4.785156 14.769531 -0.414062 14.769531 Z M -0.414062 14.769531 "/></g></g></g><g fill="#000000" fill-opacity="1"><g transform="translate(213.51657, 181.112487)"><g><path d="M 28.21875 -57.84375 C 25.25 -57.84375 19.886719 -57.511719 13.613281 -57.511719 L 2.886719 -57.511719 L 2.886719 -55.863281 C 9.324219 -54.210938 9.40625 -51.078125 9.40625 -43.734375 L 9.40625 -13.78125 C 9.40625 -6.4375 9.324219 -3.300781 2.886719 -1.648438 L 2.886719 0 L 13.613281 0 C 20.132812 0 24.011719 0.328125 28.714844 0.328125 C 48.683594 0.328125 60.484375 -12.210938 60.484375 -29.539062 C 60.484375 -46.539062 48.765625 -57.84375 28.21875 -57.84375 Z M 28.300781 -1.980469 C 24.507812 -1.980469 20.710938 -2.144531 16.832031 -2.804688 L 16.832031 -54.789062 C 20.296875 -55.285156 24.011719 -55.53125 27.148438 -55.53125 C 42.742188 -55.53125 51.820312 -43.816406 51.820312 -27.558594 C 51.820312 -12.378906 43.652344 -1.980469 28.300781 -1.980469 Z M 28.300781 -1.980469 "/></g></g></g><g fill="#000000" fill-opacity="1"><g transform="translate(277.7932, 181.112487)"><g><path d="M 67.332031 -47.363281 C 67.003906 -53.46875 68.898438 -54.871094 73.851562 -55.863281 L 73.851562 -57.511719 L 59.660156 -57.511719 C 59.660156 -54.542969 57.347656 -49.261719 56.441406 -47.199219 L 39.773438 -11.304688 L 22.363281 -48.4375 C 20.214844 -52.976562 19.886719 -55.699219 19.886719 -57.511719 L 5.035156 -57.511719 L 5.035156 -55.863281 C 9.652344 -54.871094 11.550781 -53.222656 11.550781 -49.34375 C 11.550781 -47.363281 11.058594 -42.578125 10.480469 -33.582031 L 10.066406 -26.816406 C 8.828125 -7.179688 6.847656 -2.804688 1.648438 -1.648438 L 1.648438 0 L 22.277344 -0.0820312 L 22.277344 -1.648438 C 14.359375 -2.804688 12.378906 -9.242188 13.039062 -26.488281 L 13.863281 -49.34375 L 32.511719 -8.910156 C 33.832031 -6.105469 34.902344 -3.546875 35.480469 -0.90625 L 38.535156 -0.90625 C 39.855469 -6.023438 41.339844 -8.746094 41.835938 -9.820312 L 60.152344 -49.589844 L 61.722656 -14.109375 C 62.132812 -4.949219 60.980469 -3.546875 54.707031 -1.734375 L 54.707031 0 L 75.667969 0 L 75.667969 -1.648438 C 69.726562 -3.464844 69.644531 -4.289062 69.148438 -13.945312 Z M 67.332031 -47.363281 "/></g></g></g></svg>